<?xml version="1.0" standalone="no"?>
<!DOCTYPE svg PUBLIC "-//W3C//DTD SVG 20010904//EN"
 "http://www.w3.org/TR/2001/REC-SVG-20010904/DTD/svg10.dtd">
<svg version="1.0" xmlns="http://www.w3.org/2000/svg"
 width="1161.000000pt" height="1280.000000pt" viewBox="0 0 1161.000000 1280.000000"
 preserveAspectRatio="xMidYMid meet">
<metadata>
Created by potrace 1.15, written by Peter Selinger 2001-2017
</metadata>
<g transform="translate(0.000000,1280.000000) scale(0.100000,-0.100000)"
fill="#000000" stroke="none">
<path d="M5575 12700 c-212 -45 -390 -139 -549 -290 -175 -166 -281 -355 -342
-610 -17 -71 -19 -207 -22 -2500 -2 -1698 1 -2450 8 -2510 34 -268 146 -497
334 -686 151 -150 316 -246 524 -302 86 -23 116 -26 272 -26 149 -1 188 3 263
22 427 107 745 428 855 861 l27 106 0 2470 c0 2684 4 2513 -56 2697 -54 166
-138 305 -263 436 -170 177 -362 284 -597 332 -129 26 -328 26 -454 0z"/>
<path d="M2441 10289 c-162 -35 -329 -111 -455 -208 -57 -44 -344 -340 -482
-497 -761 -865 -1241 -1927 -1383 -3061 -36 -285 -44 -452 -38 -814 5 -347 16
-489 58 -769 239 -1579 1141 -2997 2478 -3895 830 -557 1761 -877 2770 -955
174 -13 658 -13 832 0 885 68 1735 332 2473 767 1516 896 2535 2408 2780 4126
46 320 51 402 50 842 0 454 -10 585 -69 938 -169 1000 -599 1928 -1262 2722
-134 161 -307 342 -348 362 -16 9 -56 37 -87 63 -125 101 -287 180 -449 220
-109 27 -308 37 -419 21 -718 -105 -1160 -826 -926 -1508 73 -213 218 -408
412 -555 150 -113 456 -571 600 -898 214 -485 304 -940 291 -1470 -6 -236 -21
-382 -63 -590 -285 -1425 -1450 -2530 -2889 -2739 -688 -100 -1367 -1 -1997
292 -219 102 -489 271 -693 434 -138 109 -416 386 -521 518 -432 543 -675
1128 -755 1820 -17 142 -17 558 0 700 30 265 81 496 161 735 182 545 521 1065
937 1437 106 95 191 209 258 347 74 150 105 273 112 442 23 543 -320 1013
-847 1160 -81 22 -120 27 -265 30 -144 3 -185 1 -264 -17z"/>
</g>
</svg>
