<?xml version="1.0" standalone="no"?>
<!DOCTYPE svg PUBLIC "-//W3C//DTD SVG 20010904//EN"
 "http://www.w3.org/TR/2001/REC-SVG-20010904/DTD/svg10.dtd">
<svg version="1.0" xmlns="http://www.w3.org/2000/svg"
 width="300.000000pt" height="278.000000pt" viewBox="0 0 300.000000 278.000000"
 preserveAspectRatio="xMidYMid meet">

<g transform="translate(0.000000,278.000000) scale(0.100000,-0.100000)"
fill="#000000" stroke="none">
<path d="M1355 2736 c94 -23 202 -55 240 -71 111 -44 285 -137 306 -163 27
-34 24 -83 -17 -321 l-5 -34 -114 7 -113 7 -7 -55 c-4 -31 -5 -66 -1 -79 6
-24 86 -87 156 -122 l35 -18 -38 44 c-50 58 -70 103 -62 141 l7 30 96 -7 c54
-4 104 -9 113 -11 22 -6 26 7 39 128 6 57 15 121 20 143 34 147 -14 219 -205
311 -144 68 -277 97 -510 108 l-110 6 170 -44z"/>
<path d="M1125 2596 l-70 -11 115 -22 c458 -86 614 -114 629 -110 22 4 -84 72
-163 104 -33 14 -90 31 -126 39 -77 16 -285 17 -385 0z"/>
<path d="M2106 2546 c-8 -74 -8 -154 0 -184 8 -27 44 -48 99 -57 85 -14 80 -7
139 -202 20 -65 39 -125 41 -133 4 -13 -13 -15 -113 -15 -126 0 -174 -14 -249
-71 l-34 -26 48 -30 c69 -44 179 -136 246 -206 92 -98 81 -127 -78 -196 -41
-18 -78 -35 -81 -38 -5 -5 35 -11 151 -20 27 -3 32 -9 48 -58 46 -142 72 -418
62 -655 -6 -146 -26 -372 -41 -452 -11 -58 13 -36 46 43 117 281 135 529 70
958 -11 71 -20 132 -20 137 0 4 34 19 76 33 163 55 290 153 367 286 55 95 52
107 -51 227 -48 55 -136 159 -197 231 -60 71 -111 126 -113 122 -1 -4 55 -101
126 -216 149 -242 162 -265 162 -296 0 -14 -23 -45 -65 -86 -75 -73 -166 -120
-247 -129 l-53 -5 -12 43 c-19 70 -68 117 -197 188 -113 63 -116 65 -99 84 10
10 41 31 68 45 71 38 160 36 277 -5 l87 -30 -29 36 c-27 34 -114 192 -233 421
-44 86 -61 108 -90 123 -72 36 -57 113 27 137 26 7 48 16 51 20 2 3 -38 13
-89 21 l-94 15 -6 -60z"/>
<path d="M727 2472 c51 -49 57 -66 35 -108 -15 -29 -25 -37 -51 -39 -35 -3
-66 -26 -87 -66 l-13 -26 82 -6 c59 -5 85 -3 93 6 13 12 77 173 89 219 6 25 5
26 -52 32 -32 4 -74 9 -93 12 l-35 5 32 -29z"/>
<path d="M1236 2420 c-61 -10 -247 -57 -255 -65 -2 -3 -2 -7 0 -10 3 -2 176
-6 384 -10 l380 -5 -61 29 c-33 16 -87 37 -120 45 -72 20 -248 28 -328 16z"/>
<path d="M262 2033 c-131 -197 -244 -368 -251 -380 -19 -36 7 -80 99 -166 63
-59 104 -88 174 -122 171 -83 397 -132 651 -141 83 -3 164 -10 182 -16 26 -7
57 -42 149 -165 198 -265 322 -377 532 -482 151 -76 197 -139 168 -234 -17
-56 -42 -93 -121 -176 l-60 -64 60 33 c134 74 252 175 288 246 60 121 11 195
-213 318 -69 38 -145 82 -170 99 -149 100 -265 222 -325 344 -41 82 -42 81 97
82 121 1 235 17 313 43 59 19 130 57 122 64 -2 2 -51 -3 -108 -12 -260 -40
-459 13 -620 162 l-48 46 -7 -29 c-12 -51 -43 -91 -81 -104 -25 -8 -74 -9
-162 -5 -256 14 -444 57 -621 142 -126 61 -150 78 -150 107 0 27 99 251 234
530 63 130 113 237 111 237 -3 0 -112 -161 -243 -357z"/>
<path d="M581 2127 c-1 -4 -15 -78 -32 -163 -16 -86 -29 -158 -27 -160 2 -2
43 11 92 27 167 58 304 46 426 -36 29 -19 54 -35 57 -35 3 0 66 45 140 100 74
55 127 100 118 100 -37 0 -174 -54 -228 -91 -33 -21 -60 -39 -62 -39 -1 0 -21
19 -45 41 -24 23 -69 54 -99 68 -47 22 -70 26 -146 26 -49 0 -102 -4 -116 -8
-26 -7 -27 -5 -52 86 -14 50 -26 89 -26 84z"/>
<path d="M1307 1815 c-71 -19 -69 -25 9 -25 109 0 225 -18 349 -54 63 -18 115
-30 115 -25 0 19 -98 80 -159 99 -75 24 -237 26 -314 5z"/>
</g>
</svg>
