<?xml version="1.0" standalone="no"?>
<!DOCTYPE svg PUBLIC "-//W3C//DTD SVG 20010904//EN"
 "http://www.w3.org/TR/2001/REC-SVG-20010904/DTD/svg10.dtd">
<svg version="1.0" xmlns="http://www.w3.org/2000/svg"
 width="600.000000pt" height="556.000000pt" viewBox="0 0 600.000000 556.000000"
 preserveAspectRatio="xMidYMid meet">

<g transform="translate(0.000000,556.000000) scale(0.100000,-0.100000)"
fill="#000000" stroke="none">
<path d="M2375 5550 c17 -5 153 -39 303 -75 352 -85 528 -143 733 -244 286
-141 334 -169 383 -221 43 -46 46 -53 46 -102 0 -46 -34 -296 -71 -530 l-13
-78 -60 1 c-34 0 -137 6 -229 12 -93 7 -170 10 -172 6 -2 -3 -7 -65 -11 -137
l-7 -131 27 -36 c15 -19 55 -55 89 -80 60 -45 257 -158 264 -152 1 2 -31 44
-73 93 -98 114 -117 157 -112 240 2 35 9 69 15 75 8 8 62 6 194 -5 101 -9 200
-19 220 -22 35 -5 38 -3 47 28 6 18 15 76 21 128 28 256 34 302 53 394 26 131
22 241 -11 310 -99 201 -528 416 -981 490 -174 28 -731 59 -655 36z"/>
<path d="M2490 5224 c-70 -6 -207 -23 -290 -36 -75 -11 -116 -28 -69 -28 13 0
121 -18 239 -41 668 -125 1284 -238 1287 -235 6 5 -137 106 -212 149 -145 84
-295 137 -490 173 -78 15 -374 26 -465 18z"/>
<path d="M4213 5153 c-4 -32 -8 -141 -8 -243 0 -166 2 -188 19 -217 25 -41 94
-71 205 -89 119 -18 128 -22 144 -57 14 -29 67 -194 171 -526 20 -63 34 -116
32 -119 -3 -2 -38 2 -78 9 -93 17 -266 17 -343 0 -114 -24 -256 -93 -351 -169
l-32 -26 86 -53 c183 -112 527 -409 594 -512 20 -32 28 -58 28 -90 0 -38 -5
-49 -38 -80 -41 -39 -174 -108 -314 -162 -140 -55 -117 -69 116 -74 107 -3
153 -7 161 -17 17 -17 59 -160 84 -283 63 -313 86 -628 78 -1045 -9 -399 -25
-599 -83 -1014 -6 -43 -5 -48 12 -44 39 7 171 339 228 573 52 210 61 313 61
675 0 365 -6 433 -70 849 -19 123 -35 232 -35 242 0 13 26 25 116 54 324 102
557 264 713 495 122 180 152 252 131 315 -7 21 -54 85 -109 149 -53 61 -166
194 -251 296 -85 102 -213 253 -285 335 -72 83 -139 161 -149 175 l-18 25 5
-32 c6 -30 62 -124 392 -658 215 -347 222 -366 166 -441 -50 -68 -193 -199
-271 -247 -110 -68 -248 -116 -377 -131 l-51 -6 -11 51 c-25 117 -95 223 -195
294 -34 24 -117 73 -186 110 -139 75 -260 147 -260 155 1 3 22 21 48 41 213
162 401 171 755 36 64 -24 117 -43 117 -41 0 2 -18 20 -40 40 -48 44 -108 134
-180 269 -29 55 -87 165 -130 245 -42 80 -107 204 -145 275 -166 319 -183 345
-232 345 -62 1 -90 55 -84 162 2 39 50 82 107 95 27 6 72 21 99 33 43 19 47
23 30 31 -20 8 -320 59 -348 59 -11 0 -18 -16 -24 -57z"/>
<path d="M1463 4927 c98 -90 106 -119 55 -212 -33 -59 -34 -60 -78 -61 -59 -2
-88 -14 -133 -57 -38 -37 -91 -130 -80 -141 4 -3 81 -6 173 -6 195 0 186 -4
226 111 14 41 37 101 51 134 27 64 94 257 90 261 -3 3 -343 44 -364 44 -12 0
8 -25 60 -73z"/>
<path d="M2570 4853 c-151 -15 -394 -70 -584 -132 l-89 -29 104 -6 c168 -9
461 -15 994 -21 l500 -5 -110 54 c-127 63 -286 112 -423 132 -87 12 -302 16
-392 7z"/>
<path d="M954 4713 c-26 -38 -249 -371 -495 -742 -419 -630 -449 -678 -449
-718 0 -58 30 -103 143 -218 177 -178 306 -268 492 -344 387 -159 745 -228
1310 -251 127 -5 247 -12 267 -16 55 -9 101 -56 259 -274 197 -269 358 -466
486 -592 191 -190 326 -281 682 -464 147 -76 229 -144 272 -224 19 -36 23 -60
23 -120 0 -142 -59 -243 -262 -452 l-134 -138 103 57 c431 234 659 469 659
681 0 96 -24 147 -115 237 -84 84 -116 105 -400 260 -183 100 -352 208 -475
304 -177 137 -367 353 -449 511 -40 77 -86 189 -79 195 1 2 89 6 193 10 367
12 554 36 705 90 86 31 180 81 230 123 l34 29 -89 -18 c-227 -46 -480 -66
-640 -49 -328 33 -572 148 -795 374 -35 36 -67 66 -71 66 -3 0 -9 -21 -13 -47
-13 -102 -84 -203 -154 -223 -48 -13 -286 -13 -472 1 -399 28 -731 104 -1030
237 -114 51 -323 162 -352 189 -35 31 -23 83 62 279 44 100 80 185 80 187 0 9
169 364 305 642 189 385 235 485 225 485 -5 0 -30 -30 -56 -67z"/>
<path d="M1100 3953 c-35 -180 -66 -338 -68 -350 -4 -22 -3 -22 69 11 406 184
724 164 1041 -65 l57 -41 48 39 c49 40 127 99 376 282 77 55 133 101 125 101
-25 0 -213 -49 -268 -70 -120 -47 -255 -125 -321 -187 l-26 -24 -69 71 c-172
179 -370 243 -642 208 -70 -9 -133 -18 -141 -20 -10 -2 -26 45 -61 173 -26 97
-49 182 -52 189 -2 6 -32 -136 -68 -317z"/>
<path d="M2748 3659 c-77 -11 -167 -35 -220 -58 l-43 -20 75 0 c110 -2 364
-19 450 -32 85 -12 236 -50 425 -107 72 -22 132 -38 134 -36 8 7 -56 72 -109
111 -132 98 -330 154 -537 152 -65 -1 -144 -5 -175 -10z"/>
</g>
</svg>
